<?xml version="1.0" encoding="UTF-8" standalone="no"?><svg xmlns="http://www.w3.org/2000/svg" xmlns:xlink="http://www.w3.org/1999/xlink" contentScriptType="application/ecmascript" contentStyleType="text/css" height="491px" preserveAspectRatio="none" style="width:497px;height:491px;background:#FFFFFF;" version="1.1" viewBox="0 0 497 491" width="497px" zoomAndPan="magnify"><defs><filter height="300%" id="f1ppvyx0erp0pr" width="300%" x="-1" y="-1"><feGaussianBlur result="blurOut" stdDeviation="2.0"/><feColorMatrix in="blurOut" result="blurOut2" type="matrix" values="0 0 0 0 0 0 0 0 0 0 0 0 0 0 0 0 0 0 .4 0"/><feOffset dx="4.0" dy="4.0" in="blurOut2" result="blurOut3"/><feBlend in="SourceGraphic" in2="blurOut3" mode="normal"/></filter></defs><g><!--MD5=[f376dbea7e5c36b1eb7bbb8222c0f7c0]
entity kafka_brokers--><rect fill="#FEFECE" filter="url(#f1ppvyx0erp0pr)" height="46.2969" style="stroke:#A80036;stroke-width:1.5;" width="135" x="132" y="7"/><rect fill="#FEFECE" height="10" style="stroke:#A80036;stroke-width:1.5;" width="15" x="247" y="12"/><rect fill="#FEFECE" height="2" style="stroke:#A80036;stroke-width:1.5;" width="4" x="245" y="14"/><rect fill="#FEFECE" height="2" style="stroke:#A80036;stroke-width:1.5;" width="4" x="245" y="18"/><text fill="#000000" font-family="sans-serif" font-size="14" lengthAdjust="spacing" textLength="95" x="147" y="39.9951">Kafka Brokers</text><!--MD5=[40519292f206c703afba4d0acdc26984]
entity schema_registry--><rect fill="#FEFECE" filter="url(#f1ppvyx0erp0pr)" height="46.2969" style="stroke:#A80036;stroke-width:1.5;" width="156" x="121.5" y="113"/><rect fill="#FEFECE" height="10" style="stroke:#A80036;stroke-width:1.5;" width="15" x="257.5" y="118"/><rect fill="#FEFECE" height="2" style="stroke:#A80036;stroke-width:1.5;" width="4" x="255.5" y="120"/><rect fill="#FEFECE" height="2" style="stroke:#A80036;stroke-width:1.5;" width="4" x="255.5" y="124"/><text fill="#000000" font-family="sans-serif" font-size="14" lengthAdjust="spacing" textLength="116" x="136.5" y="145.9951">Schema Registry</text><!--MD5=[2c7df648a5f5a28657e08322b38dda00]
entity akhq--><rect fill="#FEFECE" filter="url(#f1ppvyx0erp0pr)" height="46.2969" style="stroke:#A80036;stroke-width:1.5;" width="79" x="7" y="113"/><rect fill="#FEFECE" height="10" style="stroke:#A80036;stroke-width:1.5;" width="15" x="66" y="118"/><rect fill="#FEFECE" height="2" style="stroke:#A80036;stroke-width:1.5;" width="4" x="64" y="120"/><rect fill="#FEFECE" height="2" style="stroke:#A80036;stroke-width:1.5;" width="4" x="64" y="124"/><text fill="#000000" font-family="sans-serif" font-size="14" lengthAdjust="spacing" textLength="39" x="22" y="145.9951">AKHQ</text><!--MD5=[24cfb324c979b3b36efb625793a50281]
entity jmx_exporter--><ellipse cx="333.5" cy="242" fill="#FEFECE" filter="url(#f1ppvyx0erp0pr)" rx="8" ry="8" style="stroke:#A80036;stroke-width:1.5;"/><text fill="#000000" font-family="sans-serif" font-size="14" lengthAdjust="spacing" textLength="86" x="290.5" y="271.9951">JMX Exporter</text><!--MD5=[7af782ffdf497945240ac48fe8e1841c]
entity kafka_connect--><rect fill="#FEFECE" filter="url(#f1ppvyx0erp0pr)" height="46.2969" style="stroke:#A80036;stroke-width:1.5;" width="141" x="137" y="219"/><rect fill="#FEFECE" height="10" style="stroke:#A80036;stroke-width:1.5;" width="15" x="258" y="224"/><rect fill="#FEFECE" height="2" style="stroke:#A80036;stroke-width:1.5;" width="4" x="256" y="226"/><rect fill="#FEFECE" height="2" style="stroke:#A80036;stroke-width:1.5;" width="4" x="256" y="230"/><text fill="#000000" font-family="sans-serif" font-size="14" lengthAdjust="spacing" textLength="101" x="152" y="251.9951">Kafka-Connect</text><!--MD5=[719323737c37fd5f5ac4ed61ddce1072]
entity postgresql--><path d="M384,123.5 C384,113.5 434.5,113.5 434.5,113.5 C434.5,113.5 485,113.5 485,123.5 L485,148.7969 C485,158.7969 434.5,158.7969 434.5,158.7969 C434.5,158.7969 384,158.7969 384,148.7969 L384,123.5 " fill="#FEFECE" filter="url(#f1ppvyx0erp0pr)" style="stroke:#000000;stroke-width:1.5;"/><path d="M384,123.5 C384,133.5 434.5,133.5 434.5,133.5 C434.5,133.5 485,133.5 485,123.5 " fill="none" style="stroke:#000000;stroke-width:1.5;"/><text fill="#000000" font-family="sans-serif" font-size="14" lengthAdjust="spacing" textLength="81" x="394" y="150.4951">PostgreSQL</text><!--MD5=[a63a7382e594addde908d2bd961b9544]
entity adminer--><rect fill="#FEFECE" filter="url(#f1ppvyx0erp0pr)" height="46.2969" style="stroke:#A80036;stroke-width:1.5;" width="97" x="386" y="219"/><rect fill="#FEFECE" height="10" style="stroke:#A80036;stroke-width:1.5;" width="15" x="463" y="224"/><rect fill="#FEFECE" height="2" style="stroke:#A80036;stroke-width:1.5;" width="4" x="461" y="226"/><rect fill="#FEFECE" height="2" style="stroke:#A80036;stroke-width:1.5;" width="4" x="461" y="230"/><text fill="#000000" font-family="sans-serif" font-size="14" lengthAdjust="spacing" textLength="57" x="401" y="251.9951">Adminer</text><!--MD5=[76c72a0d0666ffe20c687699125b4b7c]
entity prometheus--><rect fill="#FEFECE" filter="url(#f1ppvyx0erp0pr)" height="46.2969" style="stroke:#A80036;stroke-width:1.5;" width="125" x="283" y="325"/><rect fill="#FEFECE" height="10" style="stroke:#A80036;stroke-width:1.5;" width="15" x="388" y="330"/><rect fill="#FEFECE" height="2" style="stroke:#A80036;stroke-width:1.5;" width="4" x="386" y="332"/><rect fill="#FEFECE" height="2" style="stroke:#A80036;stroke-width:1.5;" width="4" x="386" y="336"/><text fill="#000000" font-family="sans-serif" font-size="14" lengthAdjust="spacing" textLength="85" x="298" y="357.9951">Prometheus</text><!--MD5=[97029dda41c7f1332efacff3a5502fd8]
entity grafana--><rect fill="#FEFECE" filter="url(#f1ppvyx0erp0pr)" height="46.2969" style="stroke:#A80036;stroke-width:1.5;" width="93" x="299" y="431"/><rect fill="#FEFECE" height="10" style="stroke:#A80036;stroke-width:1.5;" width="15" x="372" y="436"/><rect fill="#FEFECE" height="2" style="stroke:#A80036;stroke-width:1.5;" width="4" x="370" y="438"/><rect fill="#FEFECE" height="2" style="stroke:#A80036;stroke-width:1.5;" width="4" x="370" y="442"/><text fill="#000000" font-family="sans-serif" font-size="14" lengthAdjust="spacing" textLength="53" x="314" y="463.9951">Grafana</text><!--MD5=[cca35cae4bbdea60657b55ebc387bedd]
entity connect.orders--><path d="M126.5,335 L242.5,335 C247.5,335 247.5,348.1484 247.5,348.1484 C247.5,348.1484 247.5,361.2969 242.5,361.2969 L126.5,361.2969 C121.5,361.2969 121.5,348.1484 121.5,348.1484 C121.5,348.1484 121.5,335 126.5,335 " fill="#FEFECE" filter="url(#f1ppvyx0erp0pr)" style="stroke:#A80036;stroke-width:1.5;"/><path d="M242.5,335 C237.5,335 237.5,348.1484 237.5,348.1484 C237.5,361.2969 242.5,361.2969 242.5,361.2969 " fill="none" style="stroke:#A80036;stroke-width:1.5;"/><text fill="#000000" font-family="sans-serif" font-size="14" lengthAdjust="spacing" textLength="106" x="126.5" y="352.9951">connect.orders</text><!--MD5=[3f6ef0c580089b5629d0c3ff2dd0b719]
link jmx_exporter to kafka_connect--><path d="M324.46,242 C310.78,242 297.1,242 283.42,242 " fill="none" id="jmx_exporter-to-kafka_connect" style="stroke:#A80036;stroke-width:1.0;"/><polygon fill="#A80036" points="278.38,242,287.3914,245.9743,283.38,241.9857,287.3685,237.9743,278.38,242" style="stroke:#A80036;stroke-width:1.0;"/><!--MD5=[00983ab1af3c6cc4b311836a97b90f1c]
reverse link kafka_brokers to schema_registry--><path d="M199.5,58.19 C199.5,75.26 199.5,96.99 199.5,112.98 " fill="none" id="kafka_brokers-backto-schema_registry" style="stroke:#A80036;stroke-width:1.0;"/><polygon fill="#A80036" points="199.5,53.06,195.5,62.06,199.5,58.06,203.5,62.06,199.5,53.06" style="stroke:#A80036;stroke-width:1.0;"/><!--MD5=[184555482b5da0be8b1c7bce073dc58d]
reverse link postgresql to adminer--><path d="M434.5,163.68 C434.5,180.75 434.5,202.63 434.5,218.76 " fill="none" id="postgresql-backto-adminer" style="stroke:#A80036;stroke-width:1.0;"/><polygon fill="#A80036" points="434.5,158.55,430.5,167.55,434.5,163.55,438.5,167.55,434.5,158.55" style="stroke:#A80036;stroke-width:1.0;"/><!--MD5=[03d2f776c093ef9b7fea8314dba5577f]
reverse link kafka_brokers to kafka_connect--><path d="M243.19,56.39 C262.75,70.35 283.79,89.61 294.5,113 C303.01,131.59 302.6,140.23 294.5,159 C283.81,183.77 261.54,204.53 242.21,218.96 " fill="none" id="kafka_brokers-backto-kafka_connect" style="stroke:#A80036;stroke-width:1.0;"/><polygon fill="#A80036" points="238.78,53.32,243.877,61.7474,242.8822,56.1787,248.4509,55.1839,238.78,53.32" style="stroke:#A80036;stroke-width:1.0;"/><!--MD5=[c6884c0fb5a044909c3812502df265c1]
reverse link schema_registry to kafka_connect--><path d="M201.59,164.19 C202.9,181.26 204.58,202.99 205.81,218.98 " fill="none" id="schema_registry-backto-kafka_connect" style="stroke:#A80036;stroke-width:1.0;"/><polygon fill="#A80036" points="201.2,159.06,197.9061,168.3417,201.5857,164.0451,205.8823,167.7247,201.2,159.06" style="stroke:#A80036;stroke-width:1.0;"/><!--MD5=[1ec62340bf8e8680b64232fe90460c31]
reverse link postgresql to kafka_connect--><path d="M382.88,160.65 C344.67,178.15 293,201.83 255.65,218.94 " fill="none" id="postgresql-backto-kafka_connect" style="stroke:#A80036;stroke-width:1.0;"/><polygon fill="#A80036" points="387.47,158.55,377.6219,158.67,382.926,160.6362,380.9598,165.9404,387.47,158.55" style="stroke:#A80036;stroke-width:1.0;"/><!--MD5=[4b312c1d1b67dbceaf86f090c8c95b1d]
reverse link kafka_brokers to akhq--><path d="M162.7,56.01 C137.16,73.38 103.43,96.3 78.9,112.98 " fill="none" id="kafka_brokers-backto-akhq" style="stroke:#A80036;stroke-width:1.0;"/><polygon fill="#A80036" points="167.05,53.06,157.3604,54.8241,162.9186,55.8762,161.8664,61.4344,167.05,53.06" style="stroke:#A80036;stroke-width:1.0;"/><!--MD5=[dfd736b28738ec6930d14bdc04cad184]
link akhq to schema_registry--><path d="M86.24,136 C96.16,136 106.09,136 116.01,136 " fill="none" id="akhq-to-schema_registry" style="stroke:#A80036;stroke-width:1.0;"/><polygon fill="#A80036" points="121.19,136,112.19,132,116.19,136,112.19,140,121.19,136" style="stroke:#A80036;stroke-width:1.0;"/><!--MD5=[d4c02230656a3a3be40e351175b3c7b7]
link akhq to kafka_connect--><path d="M80.64,159.06 C106.58,175.81 142.25,198.85 169.16,216.24 " fill="none" id="akhq-to-kafka_connect" style="stroke:#A80036;stroke-width:1.0;"/><polygon fill="#A80036" points="173.41,218.98,168.0024,210.7485,169.2041,216.2762,163.6764,217.4779,173.41,218.98" style="stroke:#A80036;stroke-width:1.0;"/><!--MD5=[a3b14878e61b30d3cd85a967f92c6af2]
link kafka_connect to connect.orders--><path d="M202.62,265.06 C198.37,284.29 192.28,311.82 188.36,329.56 " fill="none" id="kafka_connect-to-connect.orders" style="stroke:#A80036;stroke-width:1.0;"/><polygon fill="#A80036" points="187.21,334.73,193.0499,326.7993,188.284,329.8467,185.2366,325.0809,187.21,334.73" style="stroke:#A80036;stroke-width:1.0;"/><!--MD5=[3dab43406aa141977a80a5bc439d1e90]
reverse link jmx_exporter to prometheus--><path d="M335.06,256.51 C337.06,273.84 340.55,304.12 342.94,324.85 " fill="none" id="jmx_exporter-backto-prometheus" style="stroke:#A80036;stroke-width:1.0;"/><polygon fill="#A80036" points="334.44,251.16,331.497,260.5589,335.0126,256.1271,339.4443,259.6427,334.44,251.16" style="stroke:#A80036;stroke-width:1.0;"/><!--MD5=[1ec854ba82c24ede1151fa34374d364c]
reverse link prometheus to grafana--><path d="M345.5,376.19 C345.5,393.26 345.5,414.99 345.5,430.98 " fill="none" id="prometheus-backto-grafana" style="stroke:#A80036;stroke-width:1.0;"/><polygon fill="#A80036" points="345.5,371.06,341.5,380.06,345.5,376.06,349.5,380.06,345.5,371.06" style="stroke:#A80036;stroke-width:1.0;"/><!--MD5=[32beb6cb19b26de8ae69a4cda25532ba]
@startuml
component kafka_brokers as "Kafka Brokers"
component schema_registry as "Schema Registry"
component akhq as "AKHQ"

interface jmx_exporter as "JMX Exporter"
component kafka_connect as "Kafka-Connect"
jmx_exporter -> kafka_connect

database postgresql as "PostgreSQL"
component adminer as "Adminer"

component prometheus as "Prometheus"
component grafana as "Grafana"

queue connect.orders

kafka_brokers <- - schema_registry

postgresql <- - adminer

kafka_brokers <- - kafka_connect
schema_registry <- - kafka_connect
postgresql <- - kafka_connect

akhq -up-> kafka_brokers
akhq -> schema_registry
akhq - -> kafka_connect

kafka_connect - -> connect.orders

jmx_exporter <- - prometheus
prometheus <- - grafana
@enduml

PlantUML version 1.2021.12(Tue Oct 05 18:01:58 CEST 2021)
(GPL source distribution)
Java Runtime: OpenJDK Runtime Environment
JVM: OpenJDK 64-Bit Server VM
Default Encoding: UTF-8
Language: en
Country: US
--></g></svg>